<svg xmlns="http://www.w3.org/2000/svg" version="1.1" xmlns:xlink="http://www.w3.org/1999/xlink" width="1000" height="1000"><metadata><rdf:RDF xmlns:rdf="http://www.w3.org/1999/02/22-rdf-syntax-ns#" xmlns:dc="http://purl.org/dc/elements/1.1/"><rdf:Description><dc:creator>RealFaviconGenerator</dc:creator><dc:source>https://realfavicongenerator.net</dc:source></rdf:Description></rdf:RDF></metadata><style>
    #light-icon {
      display: inline;
    }
    #dark-icon {
      display: none;
    }

    @media (prefers-color-scheme: dark) {
      #light-icon {
        display: none;
      }
      #dark-icon {
        display: inline;
      }
    }
  </style><g id="light-icon"><svg xmlns="http://www.w3.org/2000/svg" version="1.1" xmlns:xlink="http://www.w3.org/1999/xlink" width="1000" height="1000"><g clip-path="url(#SvgjsClipPath1075)"><rect width="1000" height="1000" fill="#ffffff"></rect><g transform="matrix(10,0,0,10,0,0)"><svg xmlns="http://www.w3.org/2000/svg" viewBox="0 0 100 100" width="100" height="100"><defs>
    <linearGradient id="bgVibrant" x1="0%" y1="0%" x2="100%" y2="100%">
      <stop offset="0%" stop-color="#3B82F6"></stop>   <stop offset="50%" stop-color="#8B5CF6"></stop>  <stop offset="100%" stop-color="#EC4899"></stop> </linearGradient>

    <linearGradient id="mRight" x1="0%" y1="0%" x2="100%" y2="100%">
      <stop offset="0%" stop-color="#FFFFFF" stop-opacity="1"></stop>
      <stop offset="100%" stop-color="#E2E8F0" stop-opacity="0.6"></stop>
    </linearGradient>

    <linearGradient id="mLeft" x1="0%" y1="0%" x2="100%" y2="100%">
      <stop offset="0%" stop-color="#FFFFFF"></stop>
      <stop offset="100%" stop-color="#F8FAFC"></stop>
    </linearGradient>

    <filter id="popShadow" x="-20%" y="-20%" width="140%" height="140%">
      <feDropShadow dx="3" dy="4" stdDeviation="3" flood-color="#000000" flood-opacity="0.4"></feDropShadow>
    </filter>
  <clipPath id="SvgjsClipPath1075"><rect width="1000" height="1000" x="0" y="0" rx="250" ry="250"></rect></clipPath></defs><rect width="100" height="100" rx="22" fill="url(#bgVibrant)"></rect><path d="M 85 75 L 75 25 L 45 55 L 65 75 Z" fill="url(#mRight)"></path><path d="M 15 75 L 25 25 L 55 55 L 35 75 Z" fill="url(#mLeft)" filter="url(#popShadow)"></path></svg></g></g></svg></g><g id="dark-icon"><svg xmlns="http://www.w3.org/2000/svg" version="1.1" xmlns:xlink="http://www.w3.org/1999/xlink" width="1000" height="1000"><g clip-path="url(#SvgjsClipPath1076)"><rect width="1000" height="1000" fill="#ffffff"></rect><g transform="matrix(10,0,0,10,0,0)"><svg xmlns="http://www.w3.org/2000/svg" viewBox="0 0 100 100" width="100" height="100"><defs>
    <linearGradient id="bgVibrant" x1="0%" y1="0%" x2="100%" y2="100%">
      <stop offset="0%" stop-color="#3B82F6"></stop>   <stop offset="50%" stop-color="#8B5CF6"></stop>  <stop offset="100%" stop-color="#EC4899"></stop> </linearGradient>

    <linearGradient id="mRight" x1="0%" y1="0%" x2="100%" y2="100%">
      <stop offset="0%" stop-color="#FFFFFF" stop-opacity="1"></stop>
      <stop offset="100%" stop-color="#E2E8F0" stop-opacity="0.6"></stop>
    </linearGradient>

    <linearGradient id="mLeft" x1="0%" y1="0%" x2="100%" y2="100%">
      <stop offset="0%" stop-color="#FFFFFF"></stop>
      <stop offset="100%" stop-color="#F8FAFC"></stop>
    </linearGradient>

    <filter id="popShadow" x="-20%" y="-20%" width="140%" height="140%">
      <feDropShadow dx="3" dy="4" stdDeviation="3" flood-color="#000000" flood-opacity="0.4"></feDropShadow>
    </filter>
  <clipPath id="SvgjsClipPath1076"><rect width="1000" height="1000" x="0" y="0" rx="250" ry="250"></rect></clipPath></defs><rect width="100" height="100" rx="22" fill="url(#bgVibrant)"></rect><path d="M 85 75 L 75 25 L 45 55 L 65 75 Z" fill="url(#mRight)"></path><path d="M 15 75 L 25 25 L 55 55 L 35 75 Z" fill="url(#mLeft)" filter="url(#popShadow)"></path></svg></g></g></svg></g></svg>